<?xml version="1.0" encoding="utf-8"?>
<!DOCTYPE svg PUBLIC "-//W3C//DTD SVG 1.0//EN" "http://www.w3.org/TR/2001/REC-SVG-20010904/DTD/svg10.dtd">
<svg version="1.0" xmlns="http://www.w3.org/2000/svg" width="809px" height="359px" viewBox="0 0 809 359" preserveAspectRatio="xMidYMid meet">
 <g fill="#ffffff">
  <path d="M0 179.50 l0 -179.50 404.50 0 404.50 0 0 179.50 0 179.50 -404.50 0 -404.50 0 0 -179.50z m472.85 43.65 c-0.10 -1.85 -0.15 -0.45 -0.15 3.10 0 3.60 0.05 5.10 0.15 3.40 0.10 -1.70 0.10 -4.65 0 -6.50z m13.50 2.50 c-0.10 -1.35 -0.15 -0.25 -0.15 2.35 0 2.60 0.05 3.70 0.15 2.40 0.10 -1.35 0.10 -3.45 0 -4.75z m41.50 -3 c-0.10 -1.90 -0.15 -0.35 -0.15 3.35 0 3.70 0.05 5.25 0.15 3.40 0.10 -1.90 0.10 -4.90 0 -6.75z m15.50 0 c-0.10 -1.90 -0.15 -0.35 -0.15 3.35 0 3.70 0.05 5.25 0.15 3.40 0.10 -1.90 0.10 -4.90 0 -6.75z m19.50 0 c-0.10 -1.90 -0.15 -0.35 -0.15 3.35 0 3.70 0.05 5.25 0.15 3.40 0.10 -1.90 0.10 -4.90 0 -6.75z m14 0 c-0.10 -1.90 -0.15 -0.35 -0.15 3.35 0 3.70 0.05 5.25 0.15 3.40 0.10 -1.90 0.10 -4.90 0 -6.75z m-149.50 0.25 c-0.10 -1.75 -0.15 -0.35 -0.15 3.10 0 3.45 0.05 4.85 0.15 3.15 0.10 -1.75 0.10 -4.55 0 -6.25z m76.15 -1.90 c0 -1.85 -0.65 -1.95 -1.40 -0.25 -0.80 1.70 -0.75 1.75 0.40 1.75 0.80 0 1 -0.35 1 -1.50z m-318.35 -12.55 c9.55 -2.60 15.90 -9.90 15.20 -17.45 -0.30 -3.40 -1.25 -5.40 -3.85 -8 -3.55 -3.55 -8.30 -5.30 -21.50 -7.80 -2 -0.35 -4.60 -1.60 -5.10 -2.40 -0.45 -0.70 -0.50 -3.90 -0.10 -5.05 0.70 -1.85 3.20 -2.50 8.95 -2.40 4.95 0.10 8.05 0.65 13.75 2.45 0.55 0.15 1.30 -1.05 2.80 -4.75 l2.05 -4.95 -1.70 -0.80 c-3.75 -1.80 -9.40 -2.90 -15.90 -3.15 -6.25 -0.25 -6.70 -0.20 -11.30 1.30 -9.30 3 -14.15 8.40 -14.15 15.80 0 4.30 1.10 6.65 4.70 9.90 2.75 2.50 6.45 3.95 14.75 5.85 10.30 2.40 11.35 3 11.15 6.65 -0.10 2.05 -0.40 2.70 -1.55 3.55 -2.65 2 -15.30 1 -21.55 -1.65 -1.30 -0.60 -2.60 -1.05 -2.85 -1.05 -0.25 0 -1.30 1.75 -2.25 3.90 -3.05 6.65 -3.05 6 -0.05 7.30 2.50 1.10 9.95 3.10 13.10 3.45 4.85 0.60 11.65 0.30 15.40 -0.70z m269.10 -0.60 c3.90 -1.35 9.50 -4.05 10 -4.80 0.30 -0.55 4.25 -19.85 4.25 -20.95 0 -0.65 -0.95 -0.70 -6.30 -0.45 -3.45 0.15 -6.40 0.40 -6.50 0.50 -0.10 0.10 -0.80 3.20 -1.50 6.90 -0.85 4.25 -1.65 6.95 -2.15 7.35 -0.60 0.50 -2.40 0.60 -6.85 0.50 -5.70 -0.15 -6.15 -0.25 -8.45 -1.65 -1.35 -0.85 -2.85 -2.20 -3.35 -3.10 -1.45 -2.40 -2 -7.15 -1.45 -11.45 0.90 -6.45 3.30 -10 8.65 -13 2.55 -1.40 2.95 -1.45 8.90 -1.45 5.95 0 6.35 0.05 8.85 1.45 1.45 0.80 3 1.85 3.45 2.35 0.80 0.85 1.05 0.75 5.75 -2.90 2.75 -2.10 4.95 -3.95 4.95 -4.20 0 -0.20 -1.05 -1.30 -2.35 -2.50 -5.20 -4.55 -12.90 -6.80 -22.15 -6.30 -5.80 0.30 -8.95 1.10 -14.35 3.70 -14.75 6.95 -22.15 25.45 -15.30 38.30 3 5.60 10.40 11.10 17.15 12.70 4.45 1.05 14.45 0.50 18.75 -1z m-213.85 -0.30 c1.75 -0.60 4.15 -1.70 5.35 -2.45 l2.25 -1.40 -3.40 -3.35 -3.40 -3.40 -2.05 0.75 c-3.15 1.10 -8.25 1.50 -11.05 0.80 -3.45 -0.80 -6.10 -3.45 -6.10 -6.05 l0 -1.95 15.30 0 15.35 0 -0.25 -3.90 c-0.55 -9.95 -8.40 -17.95 -19.15 -19.60 -14.15 -2.25 -28.65 10.60 -26.30 23.30 1.60 8.65 8.55 15.60 17.90 17.95 4.15 1.05 11.55 0.70 15.55 -0.70z m100.15 0.95 c7.25 -1.35 14.45 -7.65 14.45 -12.60 0 -3.85 -2.55 -7.65 -6.45 -9.60 -2.70 -1.35 -8 -2.60 -12.70 -3.05 -5.10 -0.45 -5.85 -0.90 -5.85 -3.80 0 -2.35 0.05 -2.40 1.90 -2.90 2.85 -0.80 9.95 -0.60 13.75 0.40 l3.40 0.90 0.75 -1.80 c0.45 -1 1.20 -2.85 1.75 -4.15 l0.90 -2.35 -3.10 -0.95 c-7.65 -2.35 -15.10 -2.50 -22.10 -0.40 -5.20 1.60 -9.20 5.25 -10.70 9.90 -0.95 2.85 0.35 6.70 3 9.10 3.30 3 6.35 4.05 15.95 5.35 5.55 0.75 6 1 6 3.45 0 2.40 -0.90 3.35 -3.65 3.75 -2.70 0.40 -12.20 -0.55 -14.90 -1.50 -1.15 -0.40 -2.35 -0.75 -2.70 -0.75 -0.50 0 -3.75 6.75 -3.75 7.75 0 0.45 2.40 1.25 7.25 2.50 5 1.30 12.20 1.60 16.80 0.75z m53.55 -0.70 c3.75 -1.15 8.40 -3.50 8.40 -4.20 0 -0.20 -1.45 -1.80 -3.20 -3.55 l-3.15 -3.15 -2.45 0.85 c-3.45 1.20 -10.90 1.25 -13.05 0.10 -2.35 -1.25 -3.65 -3.20 -3.65 -5.40 l0 -1.95 15.25 0 15.25 0 0 -2 c0 -5.65 -2.65 -11.65 -6.85 -15.50 -3.35 -3.05 -6.90 -4.80 -11.90 -5.85 -3.55 -0.70 -4.25 -0.70 -7.95 0 -7.90 1.60 -14.25 6.20 -17.45 12.85 -1.40 2.95 -1.55 3.70 -1.55 7.75 0 3.55 0.25 5 1.15 7 5.05 11.20 18.65 16.90 31.15 13.05z m168.20 -0.85 c1.45 -0.80 2.80 -1.70 2.95 -2 0.20 -0.25 1.10 -0.45 2.05 -0.45 1.65 0 1.70 0.05 1.70 2 l0 2 6.70 0 c6 0 6.75 -0.10 7 -0.85 0.15 -0.50 2.65 -12.95 5.55 -27.65 2.90 -14.70 5.40 -27.15 5.55 -27.60 0.25 -0.85 -0.30 -0.90 -7.15 -0.90 l-7.45 0 -1.95 10 -1.95 10 -1.70 0 c-1.25 0 -2.25 -0.45 -3.65 -1.70 -7.40 -6.70 -21.65 -2 -27.30 9.05 -2.70 5.25 -3.35 7.85 -3.05 12.50 0.30 5.40 2.15 9.35 5.95 12.90 5.45 5 11.10 5.95 16.75 2.70z m-285.70 -10.55 c0.20 -13.15 0.40 -14.15 3.15 -16.30 1.60 -1.30 6.20 -1.85 8.55 -1.10 1.35 0.45 2 1.10 2.75 2.70 0.85 1.80 0.95 3.40 0.95 14.45 l0 12.35 7.50 0 7.50 0 0 -13.35 c0 -13.80 -0.30 -16.40 -2.20 -20.05 -2.15 -4.20 -7.70 -7.85 -12.70 -8.45 -3.30 -0.35 -8.95 1.30 -11.30 3.35 -1.10 1 -2.25 1.50 -3.25 1.50 -1.50 0 -1.55 -0.10 -1.55 -2 l0 -2 -7.25 0 -7.25 0 0 20.50 0 20.50 7.45 0 7.45 0 0.20 -12.10z m214.70 1.10 c2.60 -12.75 2.80 -13.45 4.60 -15.15 1.95 -1.85 4.40 -2.75 8.65 -3.15 l3.75 -0.30 1.30 -6.20 c1.10 -5.45 1.15 -6.20 0.45 -6 -0.45 0.10 -1.60 0.40 -2.55 0.55 -2 0.40 -5.15 1.95 -6.95 3.30 -0.65 0.55 -1.95 0.95 -2.85 0.95 -1.65 0 -1.70 -0.05 -1.70 -2 l0 -2 -6.75 0 c-3.70 0 -6.75 0.05 -6.75 0.15 0 0.05 -1.80 9.10 -4 20.10 -2.20 11 -4 20.15 -4 20.40 0 0.20 3.30 0.30 7.30 0.25 l7.30 -0.15 2.20 -10.75z m38.30 -8.25 c2.10 -10.45 3.95 -19.60 4.10 -20.35 l0.30 -1.40 -7.40 0 -7.40 0 -3.40 17.40 c-1.90 9.55 -3.75 18.75 -4.05 20.50 l-0.60 3.15 7.30 -0.15 7.30 -0.15 3.85 -19z m3.65 -29.70 c2.45 -1.10 3.95 -2.70 5 -5.20 2.25 -5.35 -4.75 -10.50 -11.30 -8.30 -4.25 1.45 -7.30 5.50 -6.40 8.60 0.90 3.15 4.90 5.85 8.70 5.85 1.10 0 2.90 -0.45 4 -0.95z"/>
  <path d="M221.85 184.70 c-0.60 -0.65 -0.40 -3.10 0.45 -4.80 1.25 -2.65 3 -3.60 6.80 -3.80 4.05 -0.25 6.45 0.50 8.15 2.50 1.05 1.25 1.25 1.95 1.15 3.85 l-0.15 2.30 -8.05 0.15 c-4.40 0.05 -8.15 -0.05 -8.35 -0.20z"/>
  <path d="M376.85 184.70 c-0.70 -0.70 -0.30 -4 0.65 -5.60 1.30 -2.10 3.70 -3.10 7.50 -3.10 5.50 0 8.80 2.85 8.40 7.20 l-0.15 1.55 -8.05 0.15 c-4.40 0.05 -8.15 -0.05 -8.35 -0.20z"/>
  <path d="M559.15 197.70 c-1.75 -0.40 -3.55 -2.45 -4.15 -4.75 -0.80 -2.95 -0.35 -8.35 1 -10.95 1.55 -3.05 3.45 -4 8.15 -4 4.50 0 5.35 0.35 6.80 2.70 0.85 1.35 1.05 2.50 1.05 5.90 0 5.20 -1.50 8.80 -4.25 10.10 -1.75 0.85 -6.70 1.40 -8.60 1z"/>
 </g>
 <g fill="#0056a3">
  <path d="M442.50 238.15 c-1.75 -0.35 -2.20 -0.90 -1.55 -2.10 0.45 -0.80 0.90 -0.95 1.95 -0.75 0.95 0.20 1.60 0 2.05 -0.50 0.60 -0.70 0.30 -1.65 -1.75 -6.40 -1.35 -3.05 -2.55 -5.75 -2.65 -6 -0.10 -0.25 0.70 -0.40 1.70 -0.30 1.80 0.15 1.90 0.30 3.35 3.80 0.85 1.95 1.70 3.60 1.85 3.60 0.15 0 0.95 -1.70 1.75 -3.75 1.40 -3.65 1.50 -3.75 3.10 -3.75 0.95 0 1.70 0.05 1.70 0.15 0 0.20 -4.65 10.70 -5.80 13.15 -0.55 1.15 -1.45 2.05 -2.50 2.50 -0.95 0.40 -1.75 0.65 -1.80 0.65 -0.10 -0.05 -0.70 -0.20 -1.40 -0.30z"/>
  <path d="M458.40 233.35 c-2.30 -1.15 -2.70 -1.85 -1.95 -3.30 l0.55 -1 1.70 1 c2.45 1.40 6 1.15 6.20 -0.45 0.10 -0.60 -0.15 -1.20 -0.50 -1.35 -5.90 -2.05 -6.50 -2.40 -7.20 -4.05 -1.75 -4.20 2.85 -7.30 8.55 -5.70 2.70 0.75 2.95 1.05 2.15 2.75 -0.40 0.90 -0.80 1.20 -1.35 0.95 -2 -0.85 -4.45 -1.35 -5.25 -1.05 -1.60 0.65 -0.60 2.05 2.20 3.20 3.90 1.55 5 2.65 5 5.10 0 2.95 -1.90 4.50 -5.80 4.75 -1.50 0.10 -3 -0.20 -4.30 -0.85z"/>
  <path d="M426.65 233.65 c-1.15 -0.20 -1.15 -0.35 -1.15 -7.80 l0 -7.60 4.10 -0.10 c4.95 -0.15 7.65 0.50 8.70 2.10 0.90 1.35 0.60 3.80 -0.60 4.75 -0.60 0.50 -0.50 0.75 0.60 1.60 1.05 0.85 1.25 1.35 1.10 3.05 -0.25 3.05 -1.65 3.85 -7.20 4.10 -2.45 0.05 -4.95 0.05 -5.55 -0.10z m7.50 -2.70 c1.50 -0.40 1.85 -0.75 1.85 -1.70 0 -1.60 -1.45 -2.35 -4.40 -2.15 -2.15 0.15 -2.35 0.25 -2.50 1.55 -0.35 2.90 0.90 3.45 5.05 2.30z m0.70 -7.25 c0.45 -0.60 0.45 -1.10 0.10 -1.75 -0.40 -0.75 -1.05 -0.95 -3.20 -0.95 l-2.75 0 0 1.65 c0 0.95 0.10 1.80 0.25 1.95 0.60 0.60 5 -0.10 5.60 -0.90z"/>
  <path d="M471 225.95 l0 -8 1.65 0.15 1.60 0.15 0.15 6.40 0.15 6.35 3.20 0 3.25 0 0 1.50 0 1.50 -5 0 -5 0 0 -8.05z"/>
  <path d="M484.55 227.65 l0.05 -6.40 -2.30 -0.15 c-2.20 -0.15 -2.30 -0.25 -2.30 -1.65 l0 -1.45 5.95 0 c5.20 0 5.95 0.10 6.25 0.90 0.15 0.45 0.45 1.15 0.60 1.50 0.20 0.45 -0.40 0.60 -2.25 0.60 l-2.55 0 0 6.50 0 6.50 -1.80 0 -1.75 0 0.10 -6.35z"/>
  <path d="M171.75 210.90 c-7.35 -0.50 -16.30 -2.95 -19.65 -5.30 -0.50 -0.35 -0.05 -1.70 1.95 -6.15 1.40 -3.15 2.75 -6.20 3 -6.80 l0.40 -1.10 4.15 1.75 c7.65 3.25 17.55 4.40 20.35 2.35 0.70 -0.55 1.35 -1.45 1.45 -2 0.30 -1.90 -2.20 -3.10 -11.15 -5.15 -8.30 -1.90 -12 -3.35 -14.75 -5.85 -3.95 -3.55 -4.75 -5.45 -4.75 -11.40 0 -4.45 0.15 -5.30 1.30 -7.50 2.60 -4.85 6.30 -7.65 12.90 -9.80 4.75 -1.50 4.90 -1.55 12.80 -1.30 8.30 0.25 12.70 1.05 17.85 3.35 l2.35 1 -2.30 5.40 c-1.25 2.95 -2.50 6 -2.75 6.75 -0.35 1 -0.80 1.35 -1.35 1.20 -0.45 -0.15 -2.45 -0.85 -4.45 -1.55 -9.70 -3.40 -19.55 -2.10 -17.85 2.30 0.40 1 3.30 2.25 6.50 2.90 11.50 2.20 15.25 3.45 19.10 6.35 6.30 4.80 7.20 15.75 1.85 22.10 -5.55 6.65 -14.25 9.35 -26.95 8.45z"/>
  <path d="M329.75 210.45 c-5.60 -0.45 -14.80 -2.80 -15.50 -4 -0.25 -0.35 3.90 -11.10 4.60 -11.90 0.10 -0.15 0.80 0.10 1.55 0.55 2.40 1.35 6.25 2.40 10.95 2.85 5.05 0.55 7.85 0.10 8.40 -1.30 0.45 -1.25 -0.85 -2 -4.15 -2.40 -10.15 -1.20 -14.20 -2.50 -17.55 -5.50 -3.10 -2.85 -4.40 -8.45 -2.90 -12.60 1.05 -2.80 3.70 -6 6.10 -7.45 5.10 -2.95 14.95 -4.40 22.25 -3.25 3.95 0.65 10.90 2.50 11.20 3 0.20 0.25 -1.40 4.45 -3.80 10.10 l-0.80 1.80 -3.65 -1.20 c-6.50 -2.20 -14.95 -2 -14.95 0.30 0 1.25 1.75 1.90 5.80 2.30 10.70 0.95 17.20 4.30 18.65 9.60 0.75 2.70 0.70 6.90 -0.15 8.90 -1.15 2.70 -4.50 5.95 -7.90 7.65 -4.70 2.35 -10.50 3.20 -18.15 2.55z"/>
  <path d="M223.35 209.70 c-6.90 -1.65 -13.55 -6.80 -16.15 -12.45 -5.15 -11.25 -0.65 -23.80 10.50 -29.25 12.95 -6.40 28.95 -1.85 34.40 9.75 1.50 3.30 2.50 9 2.05 12.25 l-0.30 2 -15.15 0 c-8.50 0 -15.20 0.20 -15.20 0.45 0 1.05 3.80 4 5.75 4.50 3.15 0.80 8.10 -0.15 10.80 -2 l1.30 -0.95 4.85 4.90 4.80 4.85 -1.50 1.30 c-2.10 1.80 -6.15 3.70 -9.80 4.65 -3.80 1 -12.30 1 -16.35 0z m13.55 -27.35 c0.25 -1.30 -2.90 -4.20 -5.05 -4.60 -2.35 -0.45 -4.80 0 -6.15 1.15 -1.15 0.95 -2.80 3.80 -2.45 4.20 0.10 0.10 3.20 0.20 6.85 0.15 5.95 0 6.65 -0.10 6.80 -0.90z"/>
  <path d="M379.25 210 c-8 -1.60 -14.60 -6.70 -17.80 -13.75 -1 -2.15 -1.15 -3.35 -1.20 -8.50 0 -5.75 0.05 -6.15 1.60 -9.25 4.90 -10.05 16.80 -15.30 28.90 -12.75 4.60 1 8.15 2.75 11.40 5.75 4.60 4.20 6.85 9.80 6.85 17 l0 3.50 -15.25 0 c-8.40 0 -15.25 0.20 -15.25 0.45 0 0.70 2 3 3.15 3.65 3.05 1.60 9.10 1.25 12.60 -0.85 l2.10 -1.20 4.65 4.70 4.70 4.70 -1 1.10 c-1.50 1.70 -4.95 3.50 -9.10 4.75 -3.10 0.95 -4.90 1.20 -9.10 1.15 -2.90 -0.05 -6.15 -0.25 -7.25 -0.45z m12.30 -27.80 c-0.30 -1.80 -1.10 -2.70 -3.15 -3.75 -2.40 -1.20 -5.55 -1.10 -7.65 0.25 -1.35 0.90 -2.95 3.55 -2.55 4.25 0.15 0.20 3.25 0.35 6.90 0.30 6.25 -0.10 6.65 -0.15 6.45 -1.05z"/>
  <path d="M260.10 187.90 l0.15 -22.10 8.50 0.10 8.50 0.05 0.15 2.05 0.15 2.05 1.75 -1.50 c1 -0.90 3.15 -1.95 5.25 -2.60 6.95 -2.10 14.35 -0.55 18.85 3.95 4.60 4.60 5.05 6.85 5.10 25.10 l0.05 14.75 -9 0.15 -9.05 0.10 0 -12.25 c0 -13.80 -0.35 -15.80 -3.10 -17 -1.85 -0.75 -5.05 -0.25 -6.45 1.05 -2.50 2.25 -2.65 3.20 -2.80 15.95 l-0.10 12 -9.05 0.15 -9 0.10 0.10 -22.10z"/>
 </g>
 <g fill="#00b4eb">
  <path d="M441 211.10 c-11.25 -0.50 -20.40 -5.80 -24.40 -14.10 -5.50 -11.40 -1.65 -27.45 8.60 -36.15 6.40 -5.45 13.10 -7.85 22.80 -8.20 11.55 -0.45 18.40 1.55 24.40 7.05 1.70 1.60 3.10 3.15 3.10 3.50 0 0.30 -2.90 2.75 -6.50 5.50 l-6.50 4.95 -1.95 -1.80 c-3.70 -3.35 -5.70 -4.10 -11.05 -4.05 -5.05 0 -6.60 0.50 -10.45 3.40 -3.55 2.65 -5.60 7.35 -5.60 12.95 0 4.65 1.40 7.55 4.75 9.60 2.15 1.30 3.05 1.50 6.85 1.65 2.40 0.10 4.75 -0.05 5.30 -0.30 0.70 -0.40 1.20 -1.90 2.10 -6.70 1.75 -9.10 0.60 -8.15 10 -8.30 7.60 -0.15 8.05 -0.15 8.05 0.75 0 1.30 -4.40 23.05 -4.75 23.70 -0.50 0.75 -6.70 3.70 -10.25 4.85 -4.45 1.40 -9.15 1.95 -14.50 1.70z"/>
  <path d="M549.60 209.45 c-3.70 -1.45 -8.10 -5.70 -9.75 -9.35 -2.30 -5.10 -2.65 -12.30 -0.95 -17.95 1.10 -3.55 4.30 -8.75 6.80 -11 7.60 -6.85 19.85 -8.20 25.85 -2.80 1.10 1 2.05 1.70 2.15 1.60 0.10 -0.10 1 -4.65 2.10 -10.05 l1.90 -9.90 9.15 0 c5.05 0 9.15 0.05 9.15 0.15 0 0.20 -11.45 57.55 -11.75 58.75 -0.25 1.10 -0.35 1.10 -8.80 1.10 l-8.55 0 0.35 -2.10 c0.35 -2.05 0.35 -2.10 -0.55 -1.35 -0.55 0.45 -2.05 1.45 -3.35 2.20 -3.35 1.95 -9.85 2.25 -13.75 0.70z m16.75 -14.30 c4.80 -2.20 5.55 -12.80 1.15 -15.15 -1.60 -0.85 -5.60 -0.60 -7.35 0.50 -2.95 1.80 -4.70 7.05 -3.65 11 1.20 4.50 4.95 5.90 9.85 3.65z"/>
  <path d="M472.50 209.40 c0 -1.05 8.45 -43 8.70 -43.30 0.15 -0.10 4 -0.25 8.60 -0.30 l8.30 -0.05 -0.30 2.20 -0.30 2.15 1.15 -0.80 c3.55 -2.55 8.65 -4.30 12.60 -4.30 2 0 2 -1.20 -0.25 9.50 l-1.30 6.25 -3.35 0.10 c-4.10 0.10 -6.45 0.80 -8.60 2.75 -2.10 1.80 -2.30 2.35 -4.95 15.40 l-2.20 10.75 -9.05 0.15 c-7.15 0.10 -9.05 0 -9.05 -0.50z"/>
  <path d="M509.20 209.15 c0.10 -0.50 2.10 -10.35 4.35 -21.90 2.25 -11.55 4.15 -21.05 4.20 -21.15 0.05 -0.10 4.10 -0.20 8.95 -0.30 6.40 -0.15 8.95 -0.05 9.05 0.40 0.10 0.30 -1.75 10.25 -4.15 22.05 l-4.35 21.50 -9.15 0.15 c-8.60 0.10 -9.15 0.05 -8.90 -0.75z"/>
  <path d="M527.25 162 c-6.70 -0.95 -10.20 -6.05 -8 -11.75 1.55 -4.15 5.40 -6.25 11.30 -6.25 7.55 0.05 11.70 5.30 9.25 11.75 -1.80 4.65 -6.55 7.05 -12.55 6.25z"/>
 </g>
 <g fill="#40b65a">
  <path d="M501.95 228.90 l0 -5.15 -2.10 4.35 c-2.85 5.95 -3.55 5.95 -6.60 -0.10 -1.25 -2.45 -2.25 -4.60 -2.25 -4.70 0 -0.20 1.70 -0.10 3.05 0.15 0.15 0 0.70 0.95 1.20 2.05 0.50 1.10 1.05 2 1.25 2 0.20 0 1.35 -2.15 2.55 -4.75 l2.15 -4.75 1.90 0 1.90 0 0 8 0 8 -1.50 0 -1.50 0 -0.05 -5.10z"/>
  <path d="M511.50 233.10 c-2.10 -1.15 -3.85 -3.55 -4.30 -5.95 -0.45 -2.40 1 -5.85 3.15 -7.50 1.50 -1.15 2.25 -1.35 5.15 -1.35 2.70 -0.05 3.70 0.15 4.80 1 2.35 1.75 3.35 3.50 3.60 6.30 0.20 2.95 -0.85 5.10 -3.50 7.05 -2 1.50 -6.60 1.70 -8.90 0.45z m7.55 -3.55 c2.80 -2.80 1.45 -7.65 -2.35 -8.35 -4.20 -0.80 -7.55 3.25 -5.65 6.95 1.60 3.15 5.55 3.85 8 1.40z"/>
  <path d="M526 225.95 l0 -8.05 5.20 0.20 c4.15 0.10 5.40 0.35 6.20 1.05 1.45 1.30 1.70 3.30 0.65 5.15 -0.90 1.50 -0.90 1.55 0 2.10 1.15 0.75 1.70 3.65 0.95 5.10 -0.95 1.75 -3.50 2.50 -8.50 2.50 l-4.50 0 0 -8.05z m9.70 3.90 c0.80 -1.25 -0.55 -2.25 -3.55 -2.65 l-2.65 -0.35 0 2.05 c0 2 0.05 2.05 1.90 2.20 2.30 0.20 3.65 -0.20 4.30 -1.25z m-0.65 -6.15 c1.15 -1.35 -0.05 -2.45 -3 -2.60 l-2.55 -0.15 0 1.75 0 1.80 2.45 0 c1.60 0 2.65 -0.25 3.10 -0.80z"/>
  <path d="M541.50 226 l0 -8 1.75 0 1.75 0 0 8 0 8 -1.75 0 -1.75 0 0 -8z"/>
  <path d="M551.50 227.55 l0 -6.55 -2.50 0 c-2.45 0 -2.50 -0.05 -2.50 -1.50 l0 -1.50 6.50 0 6.50 0 0 1.50 c0 1.45 -0.05 1.50 -2.55 1.50 l-2.50 0 0.10 6.40 0.10 6.35 -1.55 0.15 -1.60 0.15 0 -6.50z"/>
  <path d="M561 226 l0 -8 6 0 6 0 0 1.50 0 1.50 -4.25 0 -4.25 0 0 1.75 0 1.75 3.75 0 3.75 0 0 1.50 0 1.50 -3.75 0 -3.75 0 0 1.75 0 1.75 4.25 0 4.25 0 0 1.50 0 1.50 -6 0 -6 0 0 -8z"/>
  <path d="M575 226 l0 -8 1.75 0 1.75 0 0 6.50 0 6.50 3.50 0 3.50 0 0 1.50 0 1.50 -5.25 0 -5.25 0 0 -8z"/>
 </g>
</svg>